<svg xmlns="http://www.w3.org/2000/svg" width="30" height="30" viewBox="0 0 30 30">
    <g fill="none" fill-rule="evenodd">
        <path fill="#233354" d="M15 0C6.729 0 0 6.729 0 15s6.729 15 15 15 15-6.729 15-15S23.271 0 15 0"/>
        <path fill="#FFF" d="M21.931 7.004l-3.335-1.329c-.348 1.09-1.155 1.81-1.917 2.55-.066.087-.218.087-.305 0L15.218 7.07v15.605h4.817c0-3.662-.066-7.39.043-11.028a11.522 11.522 0 0 1 1.853-4.643zm2.005 5.994l-1.635-5.732a10.944 10.944 0 0 0-1.787 4.533l.872 1.896c-.065 1.243-.24 5.514-.065 6.91h2.528s.654-5.863.087-7.608zM13.322 5.216a6.83 6.83 0 0 0 1.7 1.308A7.149 7.149 0 0 0 16.7 5.217h-3.378zm7.999 17.458h2.528v-1.613H21.32v1.613zM14.434 6.83c-.763-.435-1.591-1.09-2.07-1.83-.11.26-.393.458-.546.544.284.872.96 1.504 1.657 2.224l.959-.938zm2.092.938c.72-.698 1.395-1.33 1.678-2.224-.152-.086-.435-.283-.545-.544-.479.74-1.33 1.416-2.07 1.83l.937.938zm-3.204.457c-.763-.74-1.57-1.46-1.918-2.55L8.07 7.005c.981 1.416 1.591 3.03 1.854 4.62.108 3.64.043 7.367.043 11.027h4.817V7.07l-1.156 1.155c-.087.087-.24.087-.305 0zm-5.601-.96l-1.657 5.732c-.566 1.766.088 7.607.088 7.607H8.68c.174-1.395 0-5.666-.065-6.909l.871-1.896a10.597 10.597 0 0 0-1.765-4.533zm-1.547 15.41h2.528v-1.613H6.174v1.613z"/>
    </g>
</svg>
